<svg width="60" height="32" viewBox="0 0 60 32" fill="none" xmlns="http://www.w3.org/2000/svg">
	<path fill-rule="evenodd" clip-rule="evenodd" d="M30 0C30.5789 0 31.0527 0.440694 31.0912 0.99839L31.8753 9.33587C32.2685 9.39913 32.6549 9.48194 33.0337 9.58326L42.1403 11.4999C42.6119 11.5863 42.9688 11.9915 42.9688 12.4785C42.9688 13.0162 42.5336 13.4543 41.9896 13.4731L41.954 13.4737L39.0342 13.4736C40.4002 15.1584 41.2921 17.2336 41.5103 19.5024L59.1399 22.8247C59.627 22.8984 60 23.3108 60 23.8086C60 24.3463 59.5648 24.7844 59.0208 24.8032L58.9844 24.8038L53.8511 24.8038C53.8874 25.0283 53.9063 25.2584 53.9063 25.4928C53.9063 27.9028 51.9125 29.8565 49.4531 29.8565C46.9937 29.8565 45 27.9028 45 25.4928C45 25.2584 45.0189 25.0283 45.0552 24.8038L40.7491 24.8041C39.0509 29.0197 34.8782 32 30 32C25.1218 32 20.9491 29.0197 19.2509 24.8041L14.9448 24.8038C14.9811 25.0283 15 25.2584 15 25.4928C15 27.9028 13.0063 29.8565 10.5469 29.8565C8.08748 29.8565 6.09375 27.9028 6.09375 25.4928C6.09375 25.2584 6.11262 25.0283 6.14894 24.8038L1.01563 24.8038C0.454711 24.8038 0 24.3583 0 23.8086C0 23.3041 0.383073 22.8873 0.879736 22.8222L18.4898 19.5009C18.7083 17.2326 19.6001 15.158 20.9658 13.4736L18.0402 13.4737C17.4823 13.4701 17.0312 13.0259 17.0312 12.4785C17.0312 11.9956 17.3822 11.5931 17.8477 11.5024L17.8847 11.4959L26.9618 9.58447C27.3422 9.48254 27.7304 9.39929 28.1253 9.33577L28.9085 1.00296C28.9447 0.443102 29.4195 0 30 0ZM30.3 16C27.5618 16 25.3712 16.6019 25.3027 16.6687C24.3443 16.9362 23.7967 17.9393 24.0705 18.8756C24.3443 19.8118 25.3712 20.3468 26.3295 20.0793C26.3295 20.0793 28.1094 19.5443 30.3 19.5443C32.4906 19.5443 34.2705 20.0793 34.2705 20.0793C35.2288 20.3468 36.2557 19.8118 36.5295 18.8756C36.8033 18.0062 36.2557 17.0031 35.2973 16.6687C35.2288 16.6687 32.9705 16 30.3 16Z" fill="#CB323F"/>
</svg>
