<svg preserveAspectRatio="xMidYMid meet" data-bbox="0 -0.032 1126.5 420.732" viewBox="0 -0.032 1126.5 420.732" xmlns="http://www.w3.org/2000/svg" data-type="color" role="presentation" aria-hidden="true" aria-label="">
    <g>
        <path d="M35.2 215.4h8.5v12.9c-3-4.2-5.9-8.5-8.5-12.9z" fill="#ffffff" data-color="1"></path>
        <path d="m50.9 197.1-6.6 11.5-.6 1.1H32.1c-2.2-4.1-4.1-8.3-5.9-12.6h24.7z" fill="#ffffff" data-color="1"></path>
        <path fill="#ffffff" d="m191.6 209.7-7.2-12.6h40.7l-6.6 12.6h-26.9z" data-color="1"></path>
        <path d="M180.6 244.7V289c-12.2 1.3-24.5 1-36.7-.7-23-3.2-45-11.8-64.2-25-7.9-5.5-15.3-11.7-22.1-18.6h123z" fill="#ffffff" data-color="1"></path>
        <path d="m222.7 266.7.9 11.2c-10.3 4.4-21 7.6-32 9.5v-72.1h26.9l4.2 51.4z" fill="#ffffff" data-color="1"></path>
        <path d="M302.5 165.6h-16V186l-47.7 72.1c-2.4 1.5-4.9 2.9-7.4 4.2l-5.2-49.3 13.2-24.8h-69.2l3.8 7.5 9.4 18.4-.8 21H64c-4.7-5-9.1-10.3-13-15.9l-.2-6.9 13.6-24.2H34.8c-26.9-72 9.7-152.3 81.9-179.3 72.2-26.9 152.5 9.7 179.4 81.9 8.9 23.9 11.1 49.8 6.4 74.9z" fill="#ffffff" data-color="1"></path>
        <path d="m264.3 237.8 22.2-34.4V228c-11 15-24.6 27.9-40.3 38l18.1-28.2z" fill="#ffffff" data-color="1"></path>
        <path d="M310.2 178.4c-2.8 10.5-6.8 20.6-11.8 30.2v-30.2h11.8z" fill="#ffffff" data-color="1"></path>
        <path d="m50.9 197.1-6.6 11.5c-2.1-3.7-4.1-7.5-5.9-11.5h12.5z" fill="#ffb200" data-color="2"></path>
        <path d="M73.9 244.7h106.7v33.4c-18.6 2.1-37.5.3-55.4-5.1-3.5-1.1-7-2.3-10.5-3.6-4.6-1.8-9.1-3.8-13.5-6.1-9.8-5.1-19-11.4-27.3-18.6z" fill="#ffb200" data-color="2"></path>
        <path d="m218.5 215.4 4.2 51.3c-10 4.5-20.4 7.8-31.1 9.8v-61.1h26.9z" fill="#ffb200" data-color="2"></path>
        <path fill="#ffb200" d="M184.4 197.1h40.7l-6.6 12.6h-26.9l-7.2-12.6z" data-color="2"></path>
        <path d="m264.3 237.8 22.2-34.4v5.3c-6.1 10.6-13.5 20.4-22.2 29.1z" fill="#ffb200" data-color="2"></path>
        <path d="M298.5 178.4h.9l-.9 3v-3z" fill="#ffb200" data-color="2"></path>
        <path d="M302.5 165.6h-16V186l-47.7 72.1c-2.4 1.5-4.9 2.9-7.4 4.2l-5.2-49.3 13.2-24.8h-69.2l3.8 7.5 9.4 18.4-.8 21H64c-4.7-5-9.1-10.3-13-15.9l-.2-6.9 13.6-24.2H34.8c-26.9-72 9.7-152.3 81.9-179.3 72.2-26.9 152.5 9.7 179.4 81.9 8.9 23.9 11.1 49.8 6.4 74.9z" fill="#ffb200" data-color="2"></path>
        <path d="M194.9 188.3h-24.7l3.8 7.5c-31.1 4.7-60.2-16.7-64.9-47.9S125.8 87.7 157 83s60.2 16.7 64.9 47.9c3.4 22.9-7.3 45.5-27 57.4z" fill="#de8000" data-color="3"></path>
        <path d="M169.927 131.204c1.301 2.31 1.576 4.621.613 5.163s-2.797-.89-4.098-3.2-1.576-4.622-.613-5.164 2.797.89 4.098 3.2z" fill="#000000" data-color="4"></path>
        <path d="M133.558 121.625c1.3 2.31 1.576 4.621.613 5.164s-2.797-.891-4.098-3.201-1.576-4.621-.613-5.164 2.797.891 4.098 3.201z" fill="#000000" data-color="4"></path>
        <path d="M158.992 138.154c.903.636.396 2.908-1.13 5.075s-3.498 3.408-4.401 2.771-.397-2.908 1.13-5.075 3.498-3.408 4.4-2.771z" fill="#000000" data-color="4"></path>
        <path d="M139.309 146.168c.903.636.396 2.908-1.13 5.075s-3.498 3.408-4.401 2.771-.397-2.909 1.13-5.075 3.498-3.408 4.4-2.771z" fill="#000000" data-color="4"></path>
        <path d="M165.083 113.006c.708.849-.37 2.912-2.406 4.61s-4.26 2.386-4.967 1.537.37-2.912 2.405-4.61 4.26-2.386 4.968-1.537z" fill="#000000" data-color="4"></path>
        <path d="M178.182 99.524c.707.85-.37 2.913-2.406 4.61s-4.26 2.387-4.968 1.538.37-2.912 2.406-4.61 4.26-2.386 4.968-1.538z" fill="#000000" data-color="4"></path>
        <path d="M196.093 132.418c1.153 2.388 1.281 4.712.286 5.193s-2.735-1.066-3.888-3.453-1.282-4.712-.287-5.192 2.736 1.065 3.889 3.452z" fill="#000000" data-color="4"></path>
        <path d="M183.585 141.167c.831.728.089 2.934-1.658 4.928s-3.837 3.02-4.668 2.293-.088-2.935 1.659-4.929 3.836-3.02 4.667-2.292z" fill="#000000" data-color="4"></path>
        <path d="M166.76 154.442c1.696 2.037 2.384 4.26 1.535 4.968s-2.912-.37-4.61-2.408-2.384-4.26-1.535-4.968 2.912.371 4.61 2.408z" fill="#000000" data-color="4"></path>
        <path d="M147.17 133.764c.451 2.612-.065 4.882-1.154 5.07s-2.336-1.777-2.788-4.39.065-4.882 1.154-5.07 2.337 1.777 2.788 4.39z" fill="#000000" data-color="4"></path>
        <path d="M194.983 110.252c.452 2.612-.064 4.882-1.153 5.07s-2.337-1.777-2.788-4.39.065-4.882 1.153-5.07 2.337 1.777 2.788 4.39z" fill="#000000" data-color="4"></path>
        <path d="M147.084 110.465c.451 2.612-.065 4.882-1.153 5.07s-2.337-1.777-2.789-4.39.065-4.882 1.154-5.07 2.337 1.777 2.788 4.39z" fill="#000000" data-color="4"></path>
        <path d="M186.669 169.868c.457 2.667-.054 4.98-1.143 5.167s-2.342-1.824-2.8-4.49c-.457-2.668.054-4.982 1.143-5.168s2.342 1.824 2.8 4.49z" fill="#000000" data-color="4"></path>
        <path d="M151.983 161.562c.451 2.612-.065 4.883-1.154 5.07s-2.336-1.776-2.788-4.389.065-4.882 1.154-5.07 2.337 1.777 2.788 4.39z" fill="#000000" data-color="4"></path>
        <path d="M198.75 155.293c1.3 2.31 1.575 4.621.612 5.163s-2.797-.89-4.098-3.2-1.576-4.622-.613-5.164 2.797.89 4.098 3.2z" fill="#000000" data-color="4"></path>
        <path d="M166.94 168.689c1.054.33 1.266 2.648.474 5.178s-2.288 4.313-3.342 3.983-1.267-2.648-.475-5.178 2.288-4.313 3.342-3.983z" fill="#000000" data-color="4"></path>
        <path d="M184.065 123.37c.458 2.666-.054 4.98-1.143 5.167s-2.342-1.824-2.8-4.491c-.457-2.668.054-4.981 1.143-5.168s2.342 1.824 2.8 4.491z" fill="#000000" data-color="4"></path>
        <path fill="#ffffff" d="M43.7 215.4v205.3H0l16.8-205.3h26.9z" data-color="1"></path>
        <path fill="#ffffff" d="m50.9 197.1-6.6 11.5-.6 1.1H16.8l-6.6-12.6h40.7z" data-color="1"></path>
        <path fill="#ffffff" d="M184.4 197.1h40.7l-6.6 12.6h-26.9l-7.2-12.6z" data-color="1"></path>
        <path fill="#ffffff" d="M180.6 244.7v176H54.9v-176h125.7z" data-color="1"></path>
        <path fill="#ffffff" d="m223.6 277.9 11.7 142.8h-43.7V215.4h26.9l4.2 51.3.9 11.2z" data-color="1"></path>
        <path fill="#ffffff" d="m264.3 237.8 22.2-34.4v81h-52.1l11.8-18.4 18.1-28.2z" data-color="1"></path>
        <path d="M298.5 178.4v105.9h51.8V178.4h-51.8zm40.1 95h-28.4v-43.3c0-7.8 6.4-14.2 14.2-14.2s14.2 6.4 14.2 14.2v43.3z" fill="#ffffff" data-color="1"></path>
        <path fill="#ffffff" d="M234.4 294.9h115.9v125.8H247l-12.6-125.8z" data-color="1"></path>
        <path fill="#ffb200" d="M180.6 244.7v176H54.9v-176h125.7z" data-color="2"></path>
        <path d="M142.7 343.6v77.1H93.4v-77.1c0-13.6 0-24.2 24.6-35.2 12.3 5.5 18.5 10.9 21.6 16.7s3.1 11.7 3.1 18.5z" fill="#00284f" data-color="5"></path>
        <path fill="#00284f" d="M235.3 420.7h-43.7V215.4h26.9l4.2 51.3.9 11.2 11.7 142.8z" data-color="5"></path>
        <path fill="#ff8000" d="m225.1 197.1-6.6 12.6h-26.9l-7.2-12.6h40.7z" data-color="6"></path>
        <path fill="#00284f" d="M43.7 215.4v205.3H0l16.8-205.3h26.9z" data-color="5"></path>
        <path fill="#ffb200" d="m50.9 197.1-6.6 11.5-.6 1.1H16.8l-6.6-12.6h40.7z" data-color="2"></path>
        <path fill="#d41d3c" d="M350.3 294.9v125.8H247l-12.6-125.8h115.9z" data-color="7"></path>
        <path d="M298.5 178.4v105.9h51.8V178.4h-51.8zm40.1 95h-28.4v-43.3c0-7.8 6.4-14.2 14.2-14.2s14.2 6.4 14.2 14.2v43.3z" fill="#ffb200" data-color="2"></path>
        <path fill="#d41d3c" d="M286.5 203.4v81h-52.1l11.8-18.4 18.1-28.2 22.2-34.4z" data-color="7"></path>
        <path fill="#d41d3c" d="M70.5 263.3H165v42.2L117.7 267l-47.2 38.5v-42.2z" data-color="7"></path>
        <path d="M486.5 51.5v75.9c0 10.6-3.7 16.3-10.9 16.3s-10.9-5.2-10.9-16.3V51.5h-17.3v73.8c0 16 10.1 25.5 27.3 25.5 15.7 0 24.8-8.4 24.8-23.3v-76h-13z" fill="#093468" data-color="8"></path>
        <path d="M548.8 51.5H506v8.4h26L506 141v8.5h42.7V141h-26l26-81.1v-8.4z" fill="#093468" data-color="8"></path>
        <path d="M593.5 112.9c8.1-5.4 12.9-15.6 12.9-29.2 0-20.5-11.4-33.5-28.1-33.5-8 .2-15.9 2.3-22.9 6.1v88c5.8 3.3 15 6.4 22.9 6.4 16.8 0 28.1-7.8 28.1-20.3.1-8.1-4.8-14.2-12.9-17.5zm-15 30.5c-2.1-.1-4.1-.7-5.9-1.8v-23c2-.7 4-1.1 6.1-1.2 6.4 0 10.5 5.5 10.5 13.1.1 7.5-4.1 12.9-10.7 12.9zm0-33.3c-2 0-4-.4-5.9-1.2V59c1.8-.9 3.8-1.4 5.9-1.5 6.5 0 10.8 11.1 10.8 26.2s-4.2 26.4-10.8 26.4z" fill="#093468" data-color="8"></path>
        <path d="M652.5 59.9v-8.4h-37.6v98h37.6V141h-20.4v-28.5H649v-8.3h-16.8V59.9h20.3z" fill="#093468" data-color="8"></path>
        <path d="m693.6 86.7 13.2-35.8H696l-17.8 51V51.5H661v98h17.3v-20.6l7.3-19.5 9.7 40h16l-17.7-62.7z" fill="#093468" data-color="8"></path>
        <path d="M792.4 112.3c1.2 20.2-.9 27.9-6.3 28.8-7.8 1.4-16.2-14.2-21-37.2-5-24.2-3.3-41.6 4.5-43 6-1.2 12.7 8.4 17.7 25.2l15.3-8.3c-4.7-17-12.4-27.5-24.8-27.5-17.8 0-29.9 20.5-29.9 50.4 0 30.3 12.7 50.2 32.4 50.2 15.2 0 22.8-11.8 22.2-38.5l-10.1-.1z" fill="#093468" data-color="8"></path>
        <path d="M848.7 51.5v75.9c0 10.6-3.7 16.3-10.9 16.3s-10.9-5.2-10.9-16.3V51.5h-17.3v73.8c0 16 10.1 25.5 27.3 25.5 15.7 0 24.8-8.4 24.8-23.3v-76h-13z" fill="#093468" data-color="8"></path>
        <path d="M890.2 141V51.5h-17.3v98h36.3V141h-19z" fill="#093468" data-color="8"></path>
        <path d="M902.3 51.5v8.4h18.8v89.6h17.3V59.9h18.7v-8.4h-54.8z" fill="#093468" data-color="8"></path>
        <path d="M1002.5 51.5v75.9c0 10.6-3.7 16.3-10.9 16.3s-10.9-5.2-10.9-16.3V51.5h-17.3v73.8c0 16 10.1 25.5 27.2 25.5 15.7 0 24.8-8.4 24.8-23.3v-76h-12.9z" fill="#093468" data-color="8"></path>
        <path d="M1062.4 98.1c10.1-3.5 16.4-11.6 16.4-22.9 0-15.2-11.7-25-28.7-25-8.2.2-16.2 2.3-23.4 6.1v93.2h17.3V99.3c2.2.4 4.3.6 6.5.6 12.7 11.1 7.4 37.2 13.2 49.5h18.3c-9.7-15.5-2.7-43.1-19.6-51.3zm-12-4.4c-2.2 0-4.4-.5-6.4-1.5v-33c2-1 4.2-1.6 6.4-1.7 6.9 0 11.3 7.8 11.3 18.2s-4.4 18-11.3 18z" fill="#093468" data-color="8"></path>
        <path d="M1126.5 59.9v-8.4h-37.6v98h37.6V141h-20.4v-28.5h16.8v-8.3h-16.8V59.9h20.4z" fill="#093468" data-color="8"></path>
        <path d="M473.2 171.9h-8.8l-21.6 98h14.1l1.8-10.8h15.6l1 10.8h19.5l-21.6-98zm-13.1 79 8.3-48.4 5.1 48.4h-13.4z" fill="#093468" data-color="8"></path>
        <path d="m533.3 171.9 2.7 64-23.9-64h-11v98h17.8l-2.6-63.6 23.9 63.6h11.1v-98h-18z" fill="#093468" data-color="8"></path>
        <path d="M587.3 170.6c-8.7.1-17.2 2.2-24.9 6.1v88c7.7 4 16.3 6.2 24.9 6.4 18.7 0 31.1-18.9 31.1-50.3s-12.4-50.2-31.1-50.2zm-.9 93.2c-2.4-.1-4.7-.7-6.8-1.9v-82.3c2.1-1 4.4-1.5 6.8-1.7 8.2 0 13.2 17.7 13.2 43 0 25.4-5 42.9-13.2 42.9z" fill="#093468" data-color="8"></path>
        <path d="M697.7 180.4V172h-37.6v98h17.3v-64.4h16.8v-8.3h-16.8v-16.9h20.3z" fill="#093468" data-color="8"></path>
        <path d="M731 170.6c-17.9 0-30.2 20.5-30.2 50.2 0 29.9 12.3 50.4 30.2 50.4s30.2-20.5 30.2-50.4c0-29.7-12.3-50.2-30.2-50.2zm8.3 90.2c-7.9 1.5-16.4-13.8-21.2-37.2s-3.2-40.8 4.6-42.2c8.1-1.5 16.4 14.1 21.2 37.2 5.1 23.6 3.2 40.8-4.6 42.2z" fill="#093468" data-color="8"></path>
        <path d="M797 170.6c-17.9 0-30.2 20.5-30.2 50.2 0 29.9 12.3 50.4 30.2 50.4s30.2-20.5 30.2-50.4c0-29.7-12.3-50.2-30.2-50.2zm8.3 90.2c-7.9 1.5-16.4-13.8-21.2-37.2s-3.2-40.8 4.6-42.2c8.1-1.5 16.4 14.1 21.2 37.2 5.2 23.6 3.3 40.8-4.6 42.2z" fill="#093468" data-color="8"></path>
        <path d="M860.6 170.6c-8.7.1-17.3 2.2-25 6.1v88c7.7 4 16.3 6.2 25 6.4 18.7 0 31.1-18.9 31.1-50.3s-12.4-50.2-31.1-50.2zm-.9 93.2c-2.4-.1-4.7-.7-6.8-1.9v-82.3c2.1-1 4.4-1.5 6.8-1.7 8.2 0 13.2 17.7 13.2 43 0 25.4-5 42.9-13.2 42.9z" fill="#093468" data-color="8"></path>
        <path d="M485.2 300.8v-8.4h-37.6v98h17.3V326h16.8v-8.3h-16.8v-16.9h20.3z" fill="#093468" data-color="8"></path>
        <path d="M531.2 300.8v-8.4h-37.6v98h37.6V382h-20.3v-28.5h16.8v-8.3h-16.8v-44.3l20.3-.1z" fill="#093468" data-color="8"></path>
        <path d="M550.2 314.3c-1.5-7-.1-12.3 3.2-12.9 4.9-1.2 9.3 4.1 14.4 18.3l14.6-7.3c-5.9-16.2-11.1-21.2-22-21.2-15.2 0-24 9.3-24 25.3 0 27 26.9 33.4 33.3 45.6 5.2 8.1 2.2 19.2-3.4 19.3-6.7.1-11.3-8.7-16.1-26.1l-14.2 7.6c3.6 19.3 12 28.9 25.6 28.9 14.5 0 23.2-9.6 23.2-25.7-.2-31.4-30.3-30.5-34.6-51.8z" fill="#093468" data-color="8"></path>
        <path d="M584.6 292.4v8.4h18.8v89.6h17.3v-89.6h18.8v-8.4h-54.9z" fill="#093468" data-color="8"></path>
        <path d="M645.9 292.4v98h17.3v-98h-17.3z" fill="#093468" data-color="8"></path>
        <path d="M706.9 292.4 695.3 360l-6.8-67.7h-19.4l21.5 98h9l21.5-98h-14.2z" fill="#093468" data-color="8"></path>
        <path d="M742.3 292.4h-8.8l-21.6 98H726l1.8-10.8h15.6l1 10.8h19.4l-21.5-98zm-13 79 8.3-48.4 5.1 48.4h-13.4z" fill="#093468" data-color="8"></path>
        <path d="M787.4 381.9v-89.6h-17.2v98h36.3v-8.4h-19.1z" fill="#093468" data-color="8"></path>
    </g>
</svg>